<svg id="Calque_1" data-name="Calque 1" xmlns="http://www.w3.org/2000/svg" viewBox="0 0 410.55 410.55"><defs><style>.cls-1{fill:#fefefe;}.cls-2{fill:none;stroke:#000;stroke-miterlimit:10;stroke-width:5px;}.cls-3{fill:#568ea3;}.cls-4{fill:#ffe8d1;}.cls-5{fill:#345864;}.cls-6{fill:#335763;}</style></defs><title>LOGO</title><g id="TOKO"><path class="cls-1" d="M1165.6,447.2q0,147.41.08,294.8c0,3-.68,3.68-3.68,3.68q-201.6-.13-403.2,0c-3,0-3.68-.68-3.68-3.68q.14-201.6,0-403.2c0-3,.68-3.68,3.68-3.68q201.6.13,403.2,0c3,0,3.69.68,3.68,3.68-.13,33.47-.08,66.93-.08,100.4-1.12-.53-.71-1.6-.83-2.45-4.86-34.46-35.83-61.15-70.31-60.58l-88.76-.06A75.86,75.86,0,0,0,969,386c-1,.69-1.94,1.39-2.93,2.07C946.42,401.61,935,420.24,934.5,444.2c-.69,33.43-.24,66.89-.28,100.34-1.29,1-2.79.69-4.23.69-10.09,0-20.18,0-30.27,0-15.38,0-30.76.11-46.14.16-20.52,0-41-.42-61.54,0-19.69.39-33.15,12.92-35.79,31.9-.47,3.33.63,3.61,3.44,3.6,23.45-.1,46.89,0,70.34-.1,2.2,0,3.46.39,4.43,2.72,15.44,37.34,43,59.85,82.81,67.09,2.71.49,3.6,1.32,3.57,4.23-.18,15.85-.07,31.71-.1,47.56,0,1.79-.27,3.25,2.52,3.23,16.12-.14,32.24-.09,48.36,0,1.76,0,2.5-.17,2.33-2.37-.93-12.3-11-22.91-23.3-24-2.57-.22-3.38-1-3.32-3.59.17-8.12.1-16.25.12-24.38,18.7-2.55,35.83-9.09,50.76-20.7,27.67-21.52,42.07-49.82,42.54-85q0-49.14.08-98.29l53.59-.15Z" transform="translate(-755.12 -335.12)"/><circle class="cls-2" cx="178.11" cy="216.29" r="79.66"/><path class="cls-3" d="M1094.46,376.17c34.48-.57,65.45,26.12,70.31,60.58.12.85-.29,1.92.83,2.45v8l-71.18-.09q0-13.19-.1-26.37Q1094.38,398.45,1094.46,376.17Z" transform="translate(-755.12 -335.12)"/><path class="cls-3" d="M934.22,544.54c0-33.45-.41-66.91.28-100.34.5-24,11.92-42.59,31.58-56.18,1-.68,1.95-1.38,2.92-2.07,1.17,1.41.63,3.08.63,4.62,0,27.42-.14,54.85.07,82.27.2,25.44,10.82,45.55,31.7,60.26,4.16,2.93,9,4.47,13.12,7.46q-.36,5.76-.78,11.51a76.32,76.32,0,0,1-19.06,45.5c-15.84,18.25-36.22,27.25-60.3,28l0,0c0-3.33-.07-6.66-.08-10Z" transform="translate(-755.12 -335.12)"/><path class="cls-4" d="M1014.52,540.56c-4.09-3-9-4.53-13.12-7.46-20.88-14.71-31.5-34.82-31.7-60.26-.21-27.42,0-54.85-.07-82.27,0-1.54.54-3.21-.63-4.62a75.93,75.93,0,0,1,36.7-9.84c6.88,15.17,14.42,30,22.28,44.7q6.42,13.21,12.85,26.45,0,49.14-.08,98.29A93.83,93.83,0,0,1,1014.52,540.56Z" transform="translate(-755.12 -335.12)"/><path class="cls-3" d="M947.45,651.26c0,8.13,0,16.26-.12,24.38-.06,2.58.75,3.37,3.32,3.59,12.29,1.07,22.37,11.68,23.3,24,.17,2.2-.57,2.38-2.33,2.37-16.12,0-32.24-.09-48.36,0-2.79,0-2.52-1.44-2.52-3.23,0-15.85-.08-31.71.1-47.56,0-2.91-.86-3.74-3.57-4.23-39.83-7.24-67.37-29.75-82.81-67.09-1-2.33-2.23-2.72-4.43-2.72-23.45.07-46.89,0-70.34.1-2.81,0-3.91-.27-3.44-3.6,2.64-19,16.1-31.51,35.79-31.9,20.5-.41,41,0,61.54,0a28.89,28.89,0,0,1,.83,5.49c.83,18.07,7.72,33.82,19.52,47.22,16,18.12,36.53,26.69,60.49,27.5l0,0c0,7.53.09,15.07-.09,22.6-.07,2.87.65,4.21,3.73,3.84S944.31,651.51,947.45,651.26Z" transform="translate(-755.12 -335.12)"/><path class="cls-5" d="M934.42,625.62c-24-.81-44.54-9.38-60.49-27.5-11.8-13.4-18.69-29.15-19.52-47.22a28.89,28.89,0,0,0-.83-5.49c15.38,0,30.76-.13,46.14-.16,10.09,0,20.18,0,30.27,0,1.44,0,2.94.29,4.23-.69l.12,71.09C934.35,619,934.39,622.29,934.42,625.62Z" transform="translate(-755.12 -335.12)"/><path class="cls-6" d="M947.45,651.26c-3.14.25-6.3.39-9.43.76s-3.8-1-3.73-3.84c.18-7.53.08-15.07.09-22.6,24.08-.76,44.46-9.76,60.3-28a76.32,76.32,0,0,0,19.06-45.5q.42-5.75.78-11.51a93.83,93.83,0,0,0,26.23,5c-.47,35.19-14.87,63.49-42.54,85C983.28,642.17,966.15,648.71,947.45,651.26Z" transform="translate(-755.12 -335.12)"/><path class="cls-4" d="M1028,420.81c-7.86-14.69-15.4-29.53-22.28-44.7l88.76.06q-.07,22.29-.14,44.57Z" transform="translate(-755.12 -335.12)"/><path class="cls-3" d="M1028,420.81l66.34-.07q0,13.18.1,26.37l-53.59.15Q1034.41,434,1028,420.81Z" transform="translate(-755.12 -335.12)"/></g></svg>